<svg xmlns="http://www.w3.org/2000/svg" viewBox="0 0 331.18 351.46">
  <defs>
    <style>
      .cls-1 {
        fill: #fff;
      }
    </style>
  </defs>
  <title>automatizacion</title>
  <g id="Capa_2" data-name="Capa 2">
    <g id="Capa_1-2" data-name="Capa 1">
      <path class="cls-1" d="M329.19,148.12,169.76,1.62a6.16,6.16,0,0,0-8.34,0L2,148.12a6.16,6.16,0,0,0,4.17,10.69h37V345.3a6.16,6.16,0,0,0,6.16,6.16H281.9a6.16,6.16,0,0,0,6.16-6.16V158.82h37a6.16,6.16,0,0,0,4.17-10.69ZM168.46,94a4.11,4.11,0,1,1,4.11-4.11A4.11,4.11,0,0,1,168.46,94ZM281.9,146.5a6.16,6.16,0,0,0-6.16,6.16V339.14H227.5V279.69l16.76-16.75a16.27,16.27,0,0,0,5.8,1.08,16.42,16.42,0,1,0-16.42-16.42,16.27,16.27,0,0,0,1.58,7L217,272.79a6.16,6.16,0,0,0-1.8,4.35v62H201.31V209.07l11.38-11.38a16.46,16.46,0,1,0-8.54-8.88L190.8,202.17a6.16,6.16,0,0,0-1.8,4.35V339.14H174.62v-234a16.42,16.42,0,1,0-12.32,0v234H147.93V173.5a6.16,6.16,0,0,0-1.8-4.36l-12.45-12.45a16.28,16.28,0,0,0,1.76-7.36,16.49,16.49,0,1,0-11,15.5l11.22,11.22V339.14H121.25V244.3a6.16,6.16,0,0,0-1.8-4.35l-18.22-18.22a16.26,16.26,0,0,0,1.58-7,16.49,16.49,0,1,0-10.62,15.34l16.75,16.75v92.29H55.43V152.66a6.16,6.16,0,0,0-6.16-6.16H22l143.62-132,143.63,132ZM246,247.59a4.11,4.11,0,1,1,4.11,4.11A4.11,4.11,0,0,1,246,247.59Zm-30.68-64.88a4.11,4.11,0,1,1,4.11,4.11A4.11,4.11,0,0,1,215.27,182.71Zm-92.15-33.37a4.11,4.11,0,1,1-4.11-4.11A4.11,4.11,0,0,1,123.12,149.34ZM90.48,214.75a4.11,4.11,0,1,1-4.11-4.11A4.11,4.11,0,0,1,90.48,214.75Z"/>
    </g>
  </g>
</svg>
